<svg width="202" height="33" viewBox="0 0 202 33" fill="none" xmlns="http://www.w3.org/2000/svg">
<path d="M17.1373 22.016L16.9933 0.319999H21.6973L21.8413 21.968C21.8893 27.488 17.4253 32 11.9532 32L10.6573 32.048C5.13725 32.048 0.67325 27.632 0.62525 22.16L0.48125 0.464L5.13725 0.415998L5.28125 22.112C5.32925 25.04 7.68125 27.392 10.6093 27.344H11.9532C14.8333 27.344 17.1853 24.944 17.1373 22.016ZM40.2309 11.216C40.6629 11.792 41.0949 12.368 41.3349 12.8L41.5749 13.28L37.5429 16.256L37.3029 15.392C37.2069 15.056 37.0149 14.72 36.8229 14.432C36.8229 14.432 36.3909 13.904 35.8149 13.616C34.1829 12.752 31.1589 13.856 28.8069 15.248V23.6C28.8069 23.888 28.8069 24.128 28.8069 24.368V32.048H24.2469V9.008H28.8069V11.888C29.2869 11.456 30.8709 10.064 32.6469 9.44C33.3189 9.248 33.9429 9.104 33.9429 9.104C34.6149 9.008 35.3349 8.96 36.0069 9.056C36.2469 9.056 36.3909 9.056 36.5349 9.104L37.3989 9.344C37.6869 9.44 38.0229 9.584 38.4069 9.776C39.1749 10.16 39.7509 10.64 40.2309 11.216ZM65.1961 16.352V24.368C65.1961 24.656 65.2441 25.232 65.1961 25.856C65.1001 26.528 64.9561 27.2 64.6681 27.776C64.2841 28.64 63.7561 29.264 63.4201 29.6L63.3241 29.744C62.7961 30.368 62.1241 30.896 61.3561 31.232C59.9641 31.904 59.2441 32.048 58.3321 32.048C57.9961 32.048 57.7081 32 57.3241 32L56.3641 31.952C55.7401 31.952 55.0681 31.952 54.2521 31.808C51.9481 31.664 50.2681 30.368 48.6841 29.024V32H44.0281V0.367998H48.6841V11.648C50.2681 10.304 51.9961 9.008 54.3001 8.864C55.0681 8.72 55.7401 8.72 56.3641 8.72L57.3241 8.672C58.8601 8.624 59.5321 8.576 61.3561 9.44C62.1241 9.824 62.7961 10.304 63.3241 10.928L63.4681 11.072C63.7561 11.456 64.2841 12.032 64.6681 12.944C64.9561 13.52 65.1001 14.144 65.1961 14.864C65.2441 15.296 65.2441 15.824 65.1961 16.352ZM60.4441 15.68C60.3961 14.912 60.0121 13.904 58.9081 13.568C58.0441 13.424 57.3241 13.424 56.5081 13.424C55.9321 13.424 55.3081 13.424 54.5881 13.376C53.1001 13.472 50.8441 13.76 48.8761 14.864C48.8281 14.912 48.7801 14.96 48.6841 15.008V25.664C48.7801 25.712 48.8761 25.76 48.9721 25.856C50.8441 26.912 53.1001 27.248 54.6841 27.296C55.3081 27.248 55.9321 27.248 56.5081 27.248C57.3241 27.248 58.0441 27.248 58.9561 27.104C60.0121 26.816 60.3961 25.808 60.4441 25.04V15.68ZM88.5331 16.208C88.5811 16.688 88.5811 17.12 88.5811 17.552V32.048H83.9731V29.024C81.5731 31.28 79.4131 31.856 77.9731 31.952C77.8291 31.952 77.7331 31.952 77.6371 31.952L77.4451 32C76.9171 32 76.3411 32.048 75.7651 32.048C73.5571 32.048 71.1571 31.712 69.5251 29.792C67.7011 28.016 67.1251 25.328 68.0371 22.736C68.9971 20.192 71.1571 18.464 73.7491 18.176C75.1411 18.128 76.5331 18.128 77.8771 18.176C78.6451 18.176 79.4611 18.176 80.2291 18.176C81.0451 18.176 82.9651 18.176 83.6371 17.504C83.8771 17.264 83.9251 16.784 83.9251 16.448C83.6851 14.816 82.3411 13.616 80.7091 13.616H80.6611H78.7411H77.1091C76.9171 13.616 76.6291 13.616 76.2931 13.616C75.9091 13.616 75.5251 13.616 75.2371 13.616C73.5571 13.76 72.1651 15.296 72.2611 16.976V17.12H67.6531V17.024C67.5571 15.008 68.4211 12.944 69.9091 11.408C71.4451 9.824 73.5091 9.008 75.5251 9.056H79.6051C82.5811 8.816 85.4611 10.016 86.9971 12.224C87.8131 13.136 88.3891 14.672 88.5331 16.208ZM83.9731 25.712V22.352C82.6771 22.736 81.3331 22.784 80.2771 22.784H79.9411L77.3971 22.832C77.1091 22.832 76.6771 22.832 76.1971 22.832C75.3331 22.784 74.2771 22.784 73.7491 22.976C72.6931 23.36 72.3571 24.368 72.3571 25.136C72.3571 25.856 72.7891 26.864 73.8451 27.152C74.7091 27.344 75.3811 27.344 76.1971 27.296C76.3411 27.296 76.5331 27.296 76.6771 27.296C77.1091 27.296 77.5891 27.344 78.0691 27.344C80.1331 27.296 82.1491 26.768 83.6371 25.904C83.7331 25.856 83.8771 25.808 83.9731 25.712ZM111.492 13.232C112.068 14.528 112.068 15.776 111.972 16.64V32H107.268V15.872C107.268 15.152 106.836 14.144 105.78 13.856C104.916 13.712 104.196 13.712 103.428 13.712C102.852 13.712 102.228 13.712 101.508 13.664C100.068 13.712 97.8118 14.048 95.8918 15.152C95.8438 15.2 95.7478 15.248 95.6038 15.296C95.6518 21.2 95.6518 23.024 95.5558 23.648H95.6038C95.6038 23.888 95.6038 24.128 95.6038 24.368V32H91.0438V9.008H95.6038V11.984C97.2358 10.64 98.9158 9.344 101.22 9.2C101.988 9.104 102.612 9.056 103.284 9.056H104.196C105.732 8.96 106.404 8.96 108.18 9.776C108.948 10.16 109.572 10.64 110.1 11.216L110.244 11.36C110.532 11.696 111.06 12.32 111.492 13.232Z" fill="#5D68CC"/>
<path d="M114.434 32.048V0.367998H135.794V5.12L135.074 5.072C134.834 5.072 134.45 5.072 134.114 5.072H119.09V16.832C120.53 15.152 122.066 14.192 123.602 14.048C125.282 13.904 127.106 13.904 127.154 13.904L133.49 13.952V18.416H123.17C122.018 18.416 120.53 18.608 119.522 20.144C119.426 20.24 119.33 20.336 119.282 20.432L119.186 20.672C119.138 20.864 119.09 21.056 119.09 21.248V32.048H114.434ZM138.2 32.048V0.367998H142.856V32.048H138.2ZM157.566 9.008C162.366 9.008 166.254 12.944 166.254 17.744V23.312C166.254 28.112 162.366 32.048 157.566 32.048H153.966C149.166 32.048 145.278 28.112 145.278 23.312V17.744C145.278 12.944 149.166 9.008 153.966 9.008H157.566ZM157.566 27.44C159.822 27.44 161.646 25.568 161.646 23.312V17.744C161.646 15.488 159.822 13.616 157.566 13.616H153.966C151.71 13.616 149.838 15.488 149.838 17.744V23.312C149.838 25.568 151.71 27.44 153.966 27.44H157.566ZM192.275 27.296L196.835 9.008H201.539L195.827 32.048H188.771L184.259 14L179.795 32.048H172.739L167.075 9.008H171.779L176.291 27.296L180.803 9.008H187.763L192.275 27.296Z" fill="#E66F5D"/>
</svg>
