<svg width="80" height="80" viewBox="0 0 80 80" fill="none" xmlns="http://www.w3.org/2000/svg">
<circle cx="40" cy="40" r="38.5" stroke="white" stroke-width="3"/>
<path d="M18.277 28.8363C20.2539 24.9021 23.2855 21.595 27.0331 19.2842C30.7808 16.9733 35.0971 15.7497 39.5 15.75C45.9006 15.75 51.2776 18.1036 55.3888 21.9369L48.5796 28.7484C46.1168 26.3948 42.9865 25.1954 39.5 25.1954C33.3131 25.1954 28.0763 29.3754 26.2119 34.9875C25.7369 36.4125 25.4661 37.9325 25.4661 39.5C25.4661 41.0675 25.7369 42.5875 26.2119 44.0125C28.0786 49.627 33.3131 53.8046 39.5 53.8046C42.6944 53.8046 45.4138 52.9615 47.5418 51.5365C48.7754 50.7243 49.8316 49.6703 50.6464 48.4383C51.4611 47.2063 52.0177 45.8219 52.2823 44.3687H39.5V35.1823H61.8677C62.148 36.7355 62.3 38.3553 62.3 40.0391C62.3 47.2734 59.7113 53.3629 55.2178 57.4954C51.2895 61.1244 45.9125 63.25 39.5 63.25C36.3808 63.2512 33.2918 62.6378 30.4098 61.4447C27.5277 60.2516 24.9091 58.5022 22.7034 56.2966C20.4978 54.0909 18.7484 51.4723 17.5553 48.5902C16.3622 45.7082 15.7488 42.6192 15.75 39.5C15.75 35.6667 16.6668 32.0425 18.277 28.8363Z" fill="white"/>
</svg>
